<svg xmlns="http://www.w3.org/2000/svg" width="256" height="256" viewBox="0 0 100 100"><rect width="100" height="100" rx="0" fill="#000000"></rect><path d="M13.35 25.68Q12.78 24.18 11.92 23.48Q11.06 22.78 10.16 22.58Q9.26 22.38 7.86 22.34L7.86 22.34Q7.07 22.34 6.71 22.29L6.71 22.29Q5.75 22.20 5.44 21.92Q5.13 21.63 5.13 20.67L5.13 20.67Q5.13 20.01 5.55 19.22Q5.97 18.43 6.63 18.43L6.63 18.43L29.26 18.43Q29.92 18.43 30.33 19.22Q30.75 20.01 30.75 20.67L30.75 20.67Q30.75 21.41 30.44 21.81Q30.14 22.20 29.30 22.29L29.30 22.29Q27.81 22.38 27.06 22.38L27.06 22.38Q24.47 22.47 23.37 22.69Q22.27 22.91 22.27 23.74L22.27 23.74Q22.27 23.87 22.36 24.23L22.36 24.23L34.49 68.22L49.30 19.30L54.04 19.30L69.64 68.39L81.46 24.23Q81.51 24.09 81.51 23.87L81.51 23.87Q81.51 22.95 80.23 22.71Q78.96 22.47 76.15 22.38L76.15 22.38Q75.36 22.38 73.77 22.29L73.77 22.29Q72.94 22.20 72.63 21.81Q72.32 21.41 72.32 20.67L72.32 20.67Q72.32 20.01 72.74 19.22Q73.16 18.43 73.82 18.43L73.82 18.43L93.37 18.43Q94.03 18.43 94.45 19.22Q94.87 20.01 94.87 20.67L94.87 20.67Q94.87 21.63 94.56 21.92Q94.25 22.20 93.29 22.29L93.29 22.29Q92.89 22.34 92.06 22.34L92.06 22.34Q90.65 22.38 89.73 22.56Q88.80 22.73 87.95 23.46Q87.09 24.18 86.65 25.68L86.65 25.68L70.26 81.57L64.85 81.57L49.30 34.82L34.97 81.57L29.57 81.57L13.35 25.68Z" fill="#fff"></path></svg>